<?xml version="1.0" standalone="no"?>
<!DOCTYPE svg PUBLIC "-//W3C//DTD SVG 20010904//EN"
 "http://www.w3.org/TR/2001/REC-SVG-20010904/DTD/svg10.dtd">
<svg version="1.0" xmlns="http://www.w3.org/2000/svg"
 width="100.000000pt" height="100.000000pt" viewBox="0 0 100.000000 100.000000"
 preserveAspectRatio="xMidYMid meet">
<metadata>
Created by potrace 1.14, written by Peter Selinger 2001-2017
</metadata>
<g transform="translate(0.000000,100.000000) scale(0.100000,-0.100000)"
fill="#000000" stroke="none">
<path d="M0 500 l0 -500 500 0 500 0 0 500 0 500 -182 -1 c-154 0 -178 -2
-153 -13 60 -24 161 -76 204 -105 63 -42 94 -112 81 -181 -10 -51 -23 -83 -45
-110 -7 -8 -15 -47 -18 -86 -3 -39 -13 -89 -23 -110 -9 -22 -18 -41 -18 -44
-6 -24 -68 -100 -81 -100 -5 0 1 46 9 58 4 7 14 12 23 12 9 0 13 3 10 7 -4 3
1 12 11 20 12 10 14 16 4 19 -6 3 -9 10 -6 15 3 6 12 5 22 -3 13 -10 13 -8 -1
9 -12 14 -15 23 -8 28 18 11 12 31 -9 32 -11 1 -20 -4 -20 -13 0 -8 -9 -23
-20 -34 -11 -11 -20 -26 -20 -32 -1 -7 -6 -3 -13 10 -14 24 -27 20 -27 -10 0
-23 27 -24 52 -1 16 14 18 14 18 1 0 -9 -16 -25 -36 -37 -19 -12 -32 -15 -28
-9 5 8 1 7 -10 -2 -10 -8 -14 -16 -8 -18 23 -7 -2 -42 -38 -52 -21 -6 -43 -17
-50 -25 -7 -8 -15 -13 -19 -11 -10 6 -26 -18 -28 -44 -1 -14 0 -19 3 -12 3 6
12 12 20 12 7 0 11 6 8 13 -5 13 6 17 53 18 12 1 20 6 17 13 -6 16 65 41 78
28 13 -13 -73 -69 -136 -87 -27 -8 -67 -15 -88 -15 -37 0 -38 1 -38 35 0 32 2
35 31 35 24 0 29 4 26 18 -3 9 -8 35 -11 57 -6 40 -6 40 7 10 9 -20 16 -25 21
-17 4 7 12 10 17 7 13 -9 11 4 -4 19 -7 8 -11 32 -9 63 3 44 7 51 23 48 23 -5
35 13 20 28 -8 8 -11 8 -11 -1 0 -7 -8 -12 -17 -12 -17 1 -17 1 0 11 9 6 15
14 12 19 -3 4 4 6 15 3 14 -4 20 0 20 11 0 9 5 16 12 16 7 0 5 7 -5 18 -15 17
-15 19 1 36 16 17 16 18 -5 12 -18 -6 -21 -4 -18 13 3 17 0 19 -20 11 -19 -7
-22 -6 -18 10 7 27 -32 46 -46 23 -6 -10 -11 -13 -11 -8 0 6 -5 3 -10 -5 -8
-13 -10 -12 -10 5 0 15 -3 16 -12 7 -9 -9 -16 -8 -30 5 -18 16 -24 9 -19 -21
1 -5 -7 -6 -19 -3 -19 5 -25 -6 -21 -39 1 -7 -5 -14 -14 -18 -18 -7 -20 -56
-2 -56 8 0 7 -4 -3 -10 -12 -8 -12 -10 -1 -10 11 0 10 -4 -3 -19 -11 -12 -14
-21 -7 -26 6 -3 11 0 11 8 0 8 7 20 15 27 12 10 16 9 21 -4 3 -9 10 -14 14
-11 17 11 21 -35 5 -65 -8 -16 -11 -30 -6 -30 12 0 8 -27 -6 -41 -8 -8 -17 -8
-31 0 -26 14 -28 14 -46 -4 -13 -13 -16 -13 -29 0 -8 8 -17 11 -21 8 -3 -3
-12 -1 -20 6 -10 9 -15 8 -19 -2 -6 -17 3 -32 26 -40 11 -4 17 -1 17 9 0 13 4
12 31 -2 29 -15 31 -15 26 0 -4 9 -2 16 3 16 6 0 10 -7 10 -15 0 -13 3 -13 20
-3 24 15 30 10 23 -25 -6 -30 -17 -34 -39 -12 -17 16 -74 21 -74 6 0 -15 20
-24 20 -9 1 8 6 6 15 -6 27 -36 -4 -49 -44 -18 -63 48 -81 65 -81 78 0 8 -4
14 -10 14 -11 0 -44 60 -33 60 5 0 3 4 -3 8 -6 4 -14 17 -18 30 -9 28 12 30
47 2 30 -24 38 -25 31 -6 -3 8 -17 17 -30 20 -22 6 -24 10 -18 41 4 23 2 35
-5 35 -7 0 -9 10 -5 26 5 19 4 25 -5 20 -6 -4 -9 -11 -6 -16 3 -5 0 -12 -6
-15 -15 -10 -40 26 -35 53 2 12 -1 22 -5 22 -5 0 -9 11 -9 24 0 14 -4 27 -9
30 -4 3 -12 20 -16 38 -10 42 -11 47 -26 85 -26 64 26 150 127 209 24 14 44
28 44 30 0 2 -49 4 -110 4 l-110 0 0 -500z m148 -22 c-2 -7 2 -12 9 -11 7 2
10 -4 7 -12 -10 -24 -31 -17 -31 10 0 14 3 25 8 25 5 0 8 -6 7 -12z m602 -188
c0 -5 -5 -10 -11 -10 -5 0 -7 5 -4 10 3 6 8 10 11 10 2 0 4 -4 4 -10z m-310
-109 c0 -10 -3 -20 -6 -24 -8 -7 -64 13 -64 23 0 11 30 21 41 14 5 -3 9 0 9 6
0 6 5 8 10 5 6 -3 10 -14 10 -24z"/>
<path d="M345 780 c-3 -6 1 -7 9 -4 18 7 21 14 7 14 -6 0 -13 -4 -16 -10z"/>
<path d="M680 776 c0 -2 8 -10 18 -17 15 -13 16 -12 3 4 -13 16 -21 21 -21 13z"/>
<path d="M625 690 c-4 -6 -11 -8 -16 -5 -5 4 -9 1 -9 -4 0 -16 16 -13 30 4 7
8 10 15 7 15 -3 0 -9 -5 -12 -10z"/>
<path d="M585 630 c3 -5 8 -10 11 -10 2 0 4 5 4 10 0 6 -5 10 -11 10 -5 0 -7
-4 -4 -10z"/>
<path d="M247 593 c7 -17 20 -17 26 1 4 10 0 14 -12 13 -11 -1 -17 -7 -14 -14z"/>
<path d="M365 600 c-3 -5 -2 -10 4 -10 5 0 13 5 16 10 3 6 2 10 -4 10 -5 0
-13 -4 -16 -10z"/>
<path d="M790 581 c0 -5 5 -13 10 -16 6 -3 10 -2 10 4 0 5 -4 13 -10 16 -5 3
-10 2 -10 -4z"/>
<path d="M244 549 c-3 -6 -1 -16 6 -22 10 -9 11 -9 6 1 -4 6 -2 12 3 12 6 0
11 5 11 10 0 13 -17 13 -26 -1z"/>
<path d="M825 540 c3 -5 8 -10 11 -10 2 0 4 5 4 10 0 6 -5 10 -11 10 -5 0 -7
-4 -4 -10z"/>
<path d="M191 524 c0 -11 3 -14 6 -6 3 7 2 16 -1 19 -3 4 -6 -2 -5 -13z"/>
<path d="M750 510 c0 -5 5 -10 11 -10 5 0 7 5 4 10 -3 6 -8 10 -11 10 -2 0 -4
-4 -4 -10z"/>
<path d="M660 494 c0 -8 5 -12 10 -9 6 4 8 11 5 16 -9 14 -15 11 -15 -7z"/>
<path d="M190 486 c0 -8 4 -17 9 -20 10 -7 23 19 14 28 -11 11 -23 6 -23 -8z"/>
<path d="M320 479 c0 -5 5 -7 10 -4 6 3 10 8 10 11 0 2 -4 4 -10 4 -5 0 -10
-5 -10 -11z"/>
<path d="M668 439 c4 -24 7 -27 18 -18 19 15 18 26 -4 38 -16 9 -18 6 -14 -20z"/>
<path d="M272 438 c5 -15 28 -23 28 -10 0 5 -7 13 -16 16 -10 4 -14 1 -12 -6z"/>
<path d="M280 381 c0 -14 18 -23 31 -15 8 4 7 9 -2 15 -18 11 -29 11 -29 0z"/>
<path d="M197 362 c7 -17 22 -32 35 -32 13 0 -2 25 -22 38 -17 10 -18 9 -13
-6z"/>
<path d="M616 365 c4 -8 11 -15 16 -15 6 0 5 6 -2 15 -7 8 -14 15 -16 15 -2 0
-1 -7 2 -15z"/>
<path d="M370 360 c0 -5 5 -10 11 -10 5 0 7 5 4 10 -3 6 -8 10 -11 10 -2 0 -4
-4 -4 -10z"/>
<path d="M320 349 c0 -5 5 -7 10 -4 6 3 10 8 10 11 0 2 -4 4 -10 4 -5 0 -10
-5 -10 -11z"/>
<path d="M655 350 c-3 -5 1 -10 9 -10 9 0 16 5 16 10 0 6 -4 10 -9 10 -6 0
-13 -4 -16 -10z"/>
<path d="M650 285 c-20 -24 -6 -28 15 -5 10 11 13 20 8 20 -6 0 -16 -7 -23
-15z"/>
<path d="M580 240 c0 -5 5 -10 10 -10 6 0 10 5 10 10 0 6 -4 10 -10 10 -5 0
-10 -4 -10 -10z"/>
</g>
</svg>
